# xmcd
#
# Track frame offsets:
#	150
#	15330
#	28010
#	42277
#	65361
#	78602
#	96559
#	111414
#	129414
#	144428
#	160400
#	175328
#	188220
#	206637
#	230910
#	242425
#	257909
#	290859
#	307460
#	322164
#	340375
#
# Disc length: 4737 seconds
#
# Revision: 0
# Processed by: cddbd v1.5.2PL0 Copyright (c) Steve Scherf et al.
# Submitted via: audiograbber 1.83.01
#
DISCID=4b127f15
DTITLE=Various Artist - Pagode Vip 10
DYEAR=2014
DGENRE=Samba
TTITLE0=Grupo Revelação - Quem Ama Não Pisa
TTITLE1=Turma Do Pagode - Horário de Verão
TTITLE2=Thiaguinho - As Aparências Enganam
TTITLE3=Imaginasamba - Deixa Em Off - Quem É Esse Cara - Contratempo
TTITLE4=Sorriso Maroto part. Bryan McKnight - Mais Fácil (So Easy)
TTITLE5=Só Pra Contrariar - Me Perdoa
TTITLE6=Art Popular - Lugar Lindo
TTITLE7=Lucas Morato - Eu Tô Mudando
TTITLE8=Pixote - Uma Simples Carta
TTITLE9=Grupo Revelação - Mulher Traída
TTITLE10=Belo - Vi Amor No Seu Olhar
TTITLE11=Turma Do Pagode - Luz, Cama e Ação
TTITLE12=Salgadinho - Desabafo
TTITLE13=Jorge Aragão - Do Fundo Do Nosso Quintal
TTITLE14=Zeca Pagodinho - Só O Óme
TTITLE15=Grupo Bom Gosto - Mó Love
TTITLE16=Mumuzinho - Mande Um Sinal - Calma - Dom de Sonhar
TTITLE17=Sambô - Você Abusou
TTITLE18=Eder Miguel - Barulho Na Cama
TTITLE19=Sorriso Maroto - Brigas Por Nada
TTITLE20=Art Popular - Que Delícia É Você
EXTD=
EXTT0=
EXTT1=
EXTT2=
EXTT3=
EXTT4=
EXTT5=
EXTT6=
EXTT7=
EXTT8=
EXTT9=
EXTT10=
EXTT11=
EXTT12=
EXTT13=
EXTT14=
EXTT15=
EXTT16=
EXTT17=
EXTT18=
EXTT19=
EXTT20=
PLAYORDER=
